<svg width="505" height="84" viewBox="0 0 505 84" fill="none" xmlns="http://www.w3.org/2000/svg">
<rect width="505" height="84" fill="black"/>
<path d="M62.285 53.9337C62.285 64.9152 54.4835 73.1952 38.2823 73.1952C26.7613 73.1952 18.7206 69.2352 12 62.4542L19.6813 51.6534L20.8812 52.9144C23.6412 55.7941 29.6422 60.5951 38.9427 60.5951C45.183 60.5951 47.943 57.9547 47.943 55.3741C47.943 52.1942 42.6635 50.9332 36.5429 49.494C27.0018 47.2137 15.3606 44.1534 14.8204 30.4718V29.9323V29.3921V28.8519C15.1207 19.071 23.7011 11.0901 37.5621 11.0901C47.1032 11.0901 55.3844 13.9703 62.0446 20.3912L54.0038 30.9521L52.8636 29.8718C48.6034 25.9717 42.6024 23.6914 36.3622 23.6914C31.9225 23.6914 29.2821 25.3717 29.2821 28.252C29.2821 30.8917 34.2626 32.0923 40.0231 33.4723C49.8034 35.8124 61.7443 38.9923 62.285 52.7936V53.3344V53.9337Z" fill="#E7E8E9"/>
<path d="M133.343 42.0828C133.343 59.244 119.482 73.1661 102.321 73.1661C85.1592 73.1661 71.2383 59.244 71.2383 42.0828C71.2383 24.9209 85.1592 11 102.321 11C119.482 11 133.343 24.8611 133.343 42.0828ZM119.062 42.0223C119.062 32.7816 111.562 25.281 102.321 25.281C93.0803 25.281 85.5791 32.7816 85.5791 42.0223C85.5791 51.2637 93.0803 58.7643 102.321 58.7643C111.562 58.7643 119.062 51.2637 119.062 42.0223Z" fill="#E7E8E9"/>
<path d="M200.398 57.3238C195.118 66.7452 184.977 73.1661 173.337 73.1661C156.175 73.1661 142.254 59.244 142.254 42.0828C142.254 24.9209 156.175 11 173.337 11C184.977 11 195.058 17.3605 200.398 26.7812L187.498 33.0819C184.557 28.4017 179.277 25.281 173.337 25.281C164.096 25.281 156.595 32.7816 156.595 42.0223C156.595 51.2637 164.096 58.7643 173.337 58.7643C179.277 58.7643 184.557 55.6436 187.498 50.9634L200.398 57.3238Z" fill="#E7E8E9"/>
<path d="M260.766 72.085H243.245L226.803 50.3632L223.624 54.1437V72.085H209.402V12.0801H223.624V34.762L241.564 12.0801H259.146L235.324 40.2222L260.766 72.085Z" fill="#E7E8E9"/>
<path d="M312.178 12.0801H269.695V24.7412H312.178V12.0801Z" fill="#57A7D6"/>
<path d="M312.178 59.4238V72.085H269.695V36.0217H311.519V48.6829H283.916V59.4238H312.178Z" fill="#E7E8E9"/>
<path d="M312.178 12.0801H269.695V24.7412H312.178V12.0801Z" fill="#57A7D6"/>
<path d="M312.178 59.4238V72.085H269.695V36.0217H311.519V48.6829H283.916V59.4238H312.178Z" fill="#E7E8E9"/>
<path d="M369.083 12.0801V24.7412H352.342V72.0856H338.061V24.7412H321.199V12.0801H369.083Z" fill="#E7E8E9"/>
<path d="M427.207 53.9337C427.207 64.9152 419.405 73.1952 403.204 73.1952C391.683 73.1952 383.642 69.2352 376.922 62.4542L384.603 51.6534L385.803 52.9144C388.563 55.7941 394.564 60.5951 403.865 60.5951C410.105 60.5951 412.865 57.9547 412.865 55.3741C412.865 52.1942 407.585 50.9332 401.465 49.494C391.924 47.2137 380.282 44.1534 379.742 30.4718V29.9323V29.3921V28.8519C380.043 19.071 388.623 11.0901 402.484 11.0901C412.025 11.0901 420.306 13.9703 426.966 20.3912L418.926 30.9521L417.786 29.8718C413.525 25.9717 407.524 23.6914 401.284 23.6914C396.844 23.6914 394.204 25.3717 394.204 28.252C394.204 30.8917 399.184 32.0923 404.945 33.4723C414.725 35.8124 426.666 38.9923 427.207 52.7936V53.3344V53.9337Z" fill="#E7E8E9"/>
<path d="M494.305 57.3238C489.024 66.7452 478.884 73.1661 467.243 73.1661C450.081 73.1661 436.16 59.244 436.16 42.0828C436.16 24.9209 450.081 11 467.243 11C478.884 11 488.964 17.3605 494.305 26.7812L481.404 33.0819C478.464 28.4017 473.183 25.281 467.243 25.281C458.002 25.281 450.501 32.7816 450.501 42.0223C450.501 51.2637 458.002 58.7643 467.243 58.7643C473.183 58.7643 478.464 55.6436 481.404 50.9634L494.305 57.3238Z" fill="#E7E8E9"/>
</svg>
